<svg xmlns="http://www.w3.org/2000/svg" viewBox="0 0 200 80">
  <!-- Green circle background -->
  <circle cx="40" cy="40" r="36" fill="#00704A"/>
  <circle cx="40" cy="40" r="36" fill="none" stroke="#CBA258" stroke-width="2.5"/>
  <!-- Inner circle ring -->
  <circle cx="40" cy="40" r="30" fill="none" stroke="#CBA258" stroke-width="1.2" opacity="0.7"/>
  <!-- Siren head (crown shape) -->
  <path d="M40 10 L36 16 L30 14 L33 20 L27 22 L33 24 L32 30 Q40 26 48 30 L47 24 L53 22 L47 20 L50 14 L44 16 Z" fill="#CBA258"/>
  <!-- Siren face circle -->
  <circle cx="40" cy="30" r="8" fill="#CBA258"/>
  <!-- Siren body -->
  <path d="M32 35 Q28 42 24 52 Q32 48 40 50 Q48 48 56 52 Q52 42 48 35 Q44 40 40 40 Q36 40 32 35 Z" fill="#CBA258"/>
  <!-- Tail left -->
  <path d="M24 52 Q14 58 12 68 Q20 62 28 65" fill="#CBA258"/>
  <!-- Tail right -->
  <path d="M56 52 Q66 58 68 68 Q60 62 52 65" fill="#CBA258"/>
  <!-- Stars -->
  <circle cx="22" cy="42" r="2" fill="#CBA258"/>
  <circle cx="58" cy="42" r="2" fill="#CBA258"/>
  <!-- STARBUCKS text -->
  <text x="90" y="38" font-family="Arial, sans-serif" font-size="18" font-weight="bold" fill="#00704A" letter-spacing="1">STARBUCKS</text>
  <!-- COFFEE text -->
  <text x="90" y="58" font-family="Arial, sans-serif" font-size="14" font-weight="bold" fill="#CBA258" letter-spacing="4">COFFEE</text>
  <!-- Underline -->
  <line x1="90" y1="63" x2="192" y2="63" stroke="#CBA258" stroke-width="1.5" opacity="0.6"/>
</svg>
